<?xml version="1.0" standalone="no"?>
<!DOCTYPE svg PUBLIC "-//W3C//DTD SVG 20010904//EN"
 "http://www.w3.org/TR/2001/REC-SVG-20010904/DTD/svg10.dtd">
<svg version="1.0" xmlns="http://www.w3.org/2000/svg"
 width="280.000000pt" height="100.000000pt" viewBox="0 0 280.000000 100.000000"
 preserveAspectRatio="xMidYMid meet">

<g transform="translate(0.000000,100.000000) scale(0.100000,-0.100000)"
fill="#000000" stroke="none">
<path d="M863 872 c-94 -59 -178 -114 -186 -121 -16 -13 -63 -198 -54 -208 3
-3 22 5 41 17 20 12 36 20 36 18 0 -2 5 -70 10 -152 9 -154 14 -168 54 -158
41 9 46 29 46 176 l0 139 38 -39 c20 -21 49 -48 64 -59 20 -15 27 -31 31 -67
5 -52 0 -56 -49 -38 -35 14 -56 -3 -52 -44 3 -27 8 -32 57 -47 60 -18 65 -24
75 -111 5 -41 12 -58 22 -58 8 0 83 22 167 49 83 27 172 55 196 62 26 8 46 20
48 30 3 10 19 21 35 24 24 6 39 1 73 -24 24 -17 47 -31 53 -31 5 0 30 32 56
71 l47 71 48 -45 c54 -50 102 -79 117 -69 5 4 21 33 36 64 25 51 31 58 65 63
21 4 54 11 73 16 28 7 36 6 44 -9 5 -9 30 -38 55 -63 54 -52 120 -77 162 -60
25 9 27 14 33 103 3 51 7 156 8 233 l3 140 -35 -1 c-19 -1 -48 -7 -63 -13
l-28 -11 5 -78 c3 -42 8 -124 12 -182 l6 -105 -22 20 c-43 39 -95 149 -114
241 -6 26 -4 32 12 36 14 4 21 17 25 49 3 24 3 47 1 51 -3 4 -29 8 -58 8 -48
0 -55 -3 -93 -42 -29 -30 -53 -71 -80 -137 -34 -86 -41 -96 -70 -103 -22 -6
-33 -15 -35 -31 -4 -21 -5 -21 -18 6 -13 26 -10 32 63 139 42 61 74 114 72
118 -4 6 -294 217 -321 233 -6 4 -38 -33 -75 -88 -58 -86 -67 -94 -96 -95 -31
0 -32 1 -26 33 3 17 6 36 7 41 1 9 -183 55 -275 70 -35 6 -37 4 -43 -25 -3
-17 -6 -44 -6 -60 0 -33 -23 -59 -53 -59 l-22 1 23 19 c20 17 24 31 29 110 3
49 4 90 2 90 -2 0 -81 -49 -176 -108z m465 -64 c14 -14 16 -48 2 -48 -5 0 -13
7 -18 17 -9 15 -16 14 -82 -11 -50 -18 -77 -23 -83 -17 -7 7 1 15 24 24 131
52 138 54 157 35z m-194 -73 c21 -9 36 -19 34 -23 -44 -92 -64 -122 -81 -122
-17 0 -19 5 -13 40 l6 40 -85 0 c-83 0 -85 -1 -85 -23 0 -32 20 -48 112 -92
84 -40 114 -69 124 -121 8 -44 -20 -93 -66 -116 -63 -32 -225 -16 -218 21 2 9
12 15 23 13 126 -17 156 -10 184 40 14 24 14 28 -2 46 -10 10 -49 31 -88 47
-38 15 -85 42 -104 60 -33 31 -35 36 -35 98 0 59 3 68 26 86 23 18 41 21 129
21 70 0 114 -5 139 -15z m361 5 c4 -6 4 -24 0 -40 l-7 -30 -108 0 -108 0 -4
-45 -3 -45 97 0 c79 0 98 -3 98 -15 0 -21 -24 -30 -114 -45 l-78 -13 6 -45
c12 -90 68 -131 152 -112 76 17 90 -19 16 -40 -105 -29 -179 -1 -222 85 -23
46 -25 61 -25 178 0 129 0 129 28 153 26 22 36 24 147 24 70 0 121 -4 125 -10z
m600 0 c13 -21 -6 -70 -26 -70 -23 0 -23 -7 -4 -86 21 -91 58 -167 106 -219
29 -32 39 -49 32 -56 -13 -13 -58 8 -89 43 -38 41 -81 117 -105 184 l-23 65
-33 -63 c-17 -35 -32 -67 -33 -72 0 -5 23 -6 51 -2 49 7 50 6 47 -16 -3 -20
-13 -25 -69 -37 l-67 -13 -28 -59 c-15 -33 -31 -59 -34 -59 -4 0 -26 13 -48
30 -50 36 -105 109 -128 168 l-17 43 -18 -27 c-12 -18 -20 -58 -25 -116 -6
-77 -9 -88 -25 -88 -15 0 -19 8 -19 40 0 21 -5 119 -11 215 -6 97 -9 179 -6
181 2 3 21 8 42 11 l37 6 -6 -94 -7 -94 23 30 c44 57 101 115 134 136 36 22
90 23 88 2 -1 -7 -2 -28 -2 -47 -2 -37 -25 -54 -48 -35 -7 6 -19 7 -26 3 -35
-20 -90 -68 -99 -87 -10 -18 -9 -20 2 -9 23 21 35 13 49 -30 16 -56 47 -117
73 -145 25 -28 33 -29 40 -3 4 17 2 20 -15 14 -18 -5 -19 -3 -13 28 10 45 13
48 39 48 20 0 29 15 66 110 30 77 47 109 57 106 8 -3 13 2 13 14 0 41 105 83
125 50z m-1299 -157 c-9 -225 -16 -284 -33 -290 -7 -3 -16 -4 -18 -2 -2 2 -8
76 -14 164 -6 88 -14 183 -17 211 -6 50 -6 51 28 61 64 21 61 28 54 -144z
m1501 70 c-4 -43 -9 -142 -13 -220 -6 -127 -8 -142 -25 -146 -11 -3 -19 -4
-19 -4 -3 18 -30 389 -30 405 0 24 27 40 69 41 23 1 24 0 18 -76z m-947 -11
c0 -14 -38 -44 -50 -40 -14 4 17 48 36 48 8 0 14 -4 14 -8z m640 -111 c0 -5 3
-16 6 -25 5 -12 0 -16 -20 -16 -24 0 -25 2 -14 25 11 24 28 34 28 16z"/>
<path d="M845 926 c-21 -50 -20 -50 31 -16 25 18 44 33 42 35 -2 1 -16 5 -31
9 -25 6 -29 3 -42 -28z"/>
<path d="M1472 143 c12 -3 18 -17 21 -46 l4 -42 1 42 c2 35 6 42 25 46 12 2 2
4 -23 4 -25 1 -37 -1 -28 -4z"/>
<path d="M1564 136 c-3 -8 -4 -27 -2 -43 3 -25 7 -28 42 -28 26 0 41 5 44 15
4 13 3 13 -11 2 -9 -8 -26 -12 -39 -10 -18 2 -23 9 -23 33 0 26 4 30 29 33 16
2 33 -2 38 -10 8 -10 9 -10 5 2 -5 21 -75 26 -83 6z"/>
<path d="M1687 143 c-4 -3 -7 -21 -7 -39 0 -35 13 -44 66 -44 27 0 34 4 34 20
0 24 -15 27 -24 4 -4 -10 -15 -14 -33 -12 -24 3 -28 8 -28 33 0 27 4 30 33 33
18 2 32 -1 32 -7 0 -6 5 -11 11 -11 8 0 8 5 -1 15 -12 15 -71 21 -83 8z"/>
<path d="M1850 130 c0 -15 8 -22 30 -27 17 -3 33 -10 36 -14 9 -16 -28 -23
-48 -10 -16 10 -19 10 -16 -1 7 -20 72 -17 76 4 2 12 -6 20 -29 26 -18 4 -34
13 -37 20 -5 16 40 16 57 0 11 -11 13 -10 9 2 -3 9 -19 16 -41 18 -32 3 -37 0
-37 -18z"/>
<path d="M1958 145 c-2 -2 -2 -22 0 -44 3 -35 8 -41 26 -40 16 1 17 2 4 6 -21
5 -25 59 -6 65 8 3 6 6 -4 10 -9 4 -18 5 -20 3z"/>
<path d="M2032 131 c-8 -5 -12 -21 -10 -37 3 -26 7 -29 38 -29 31 0 35 3 38
29 4 29 -10 46 -38 46 -8 0 -21 -4 -28 -9z m56 -33 c3 -25 0 -28 -27 -28 -26
0 -31 4 -31 23 0 30 9 39 35 35 13 -2 21 -12 23 -30z"/>
<path d="M2132 98 l1 -43 4 37 c3 28 9 38 26 41 18 4 17 5 -5 6 -27 1 -28 -1
-26 -41z"/>
<path d="M2207 133 c-4 -3 -7 -21 -7 -40 0 -32 1 -33 38 -31 36 1 36 1 5 5
-41 5 -43 23 -3 23 23 0 30 5 30 19 0 25 -45 42 -63 24z m51 -20 c2 -8 -6 -13
-22 -13 -25 0 -33 10 -19 24 10 10 36 3 41 -11z"/>
</g>
</svg>
